<svg width="23" height="21" viewBox="0 0 23 21" fill="none" xmlns="http://www.w3.org/2000/svg">
<mask id="mask0" mask-type="alpha" maskUnits="userSpaceOnUse" x="0" y="0" width="23" height="21">
<path fill-rule="evenodd" clip-rule="evenodd" d="M0 6.10352e-05H22.3125V21H0V6.10352e-05Z" fill="white"/>
</mask>
<g mask="url(#mask0)">
<path fill-rule="evenodd" clip-rule="evenodd" d="M1.3125 1.91194C1.3125 1.58162 1.58156 1.31256 1.91188 1.31256H20.3962C20.7292 1.31256 21 1.58162 21 1.91194V14.1094C21 14.4397 20.7292 14.7088 20.3962 14.7088H14.2362C14.0079 14.7088 13.7992 14.8247 13.6784 15.0194L11.1558 19.0969L8.63013 15.0199C8.50981 14.8252 8.30156 14.7088 8.07187 14.7088H1.91188C1.58156 14.7088 1.3125 14.4397 1.3125 14.1094V1.91194ZM20.3962 6.10352e-05H1.91188C0.8575 6.10352e-05 0 0.857561 0 1.91194V14.1094C0 15.1638 0.8575 16.0213 1.91188 16.0213H7.70656L10.5984 20.6886C10.7183 20.8837 10.927 21.0001 11.1562 21.0001C11.3846 21.0001 11.5933 20.8837 11.7141 20.689L14.602 16.0213H20.3962C21.4528 16.0213 22.3125 15.1638 22.3125 14.1094V1.91194C22.3125 0.857561 21.4528 6.10352e-05 20.3962 6.10352e-05Z" fill="black"/>
</g>
<path fill-rule="evenodd" clip-rule="evenodd" d="M9.09351 6.32967C9.45532 6.32967 9.74976 6.03523 9.74976 5.67342C9.74976 4.89817 10.3806 4.26686 11.1563 4.26642C11.9058 4.26642 12.5629 4.92398 12.5629 5.67342C12.5629 6.05054 12.4159 6.40448 12.1481 6.67004C11.0854 7.72792 10.5001 9.04654 10.5001 10.384V10.912C10.5001 11.2739 10.7945 11.5683 11.1563 11.5683C11.5181 11.5683 11.8126 11.2739 11.8126 10.912V10.384C11.8126 9.39829 12.2601 8.40998 13.0739 7.60061C13.5906 7.08654 13.8754 6.40229 13.8754 5.67342C13.8754 4.19948 12.6303 2.95392 11.1563 2.95392C9.65701 2.95436 8.43726 4.17454 8.43726 5.67342C8.43726 6.03523 8.73169 6.32967 9.09351 6.32967Z" fill="black"/>
<path fill-rule="evenodd" clip-rule="evenodd" d="M10.6874 12.3878C10.5666 12.5146 10.5001 12.6787 10.5001 12.8493C10.5001 13.0304 10.5692 13.1954 10.6904 13.3096C10.8164 13.436 10.9818 13.5056 11.1564 13.5056C11.3301 13.5056 11.4954 13.436 11.6214 13.31C11.7431 13.1888 11.8126 13.0208 11.8126 12.8493C11.8126 12.6791 11.7461 12.5155 11.6214 12.3843C11.3856 12.1484 10.9306 12.1445 10.6874 12.3878Z" fill="black"/>
</svg>
