<svg width="26" height="22" viewBox="0 0 26 22" fill="none" xmlns="http://www.w3.org/2000/svg">
<path fill-rule="evenodd" clip-rule="evenodd" d="M20.9761 13.8413H8.57941L6.06432 4.61546H23.4365L20.9761 13.8413ZM24.9233 3.47359C24.7884 3.29901 24.5805 3.19611 24.3605 3.19611H5.67683L4.94303 0.522752C4.85857 0.214042 4.57825 -0.000280674 4.25819 0.000429003H0.709799C0.318058 0.000429003 0.00012207 0.317655 0.00012207 0.710106C0.00012207 1.10185 0.318058 1.41978 0.709799 1.41978H3.71599L4.44625 4.07753L4.45548 4.10804L7.35309 14.7376C7.43754 15.0463 7.71786 15.2606 8.03793 15.2606H21.5218C21.8433 15.2606 22.1243 15.0442 22.2066 14.734L25.0453 4.08888C25.1028 3.87598 25.0574 3.64817 24.9233 3.47359Z" fill="black"/>
<path fill-rule="evenodd" clip-rule="evenodd" d="M10.1666 20.2283C9.38311 20.2283 8.74724 19.5925 8.74724 18.809C8.74724 18.0255 9.38311 17.3896 10.1666 17.3896C10.9501 17.3896 11.5859 18.0255 11.5859 18.809C11.5852 19.5925 10.9501 20.2276 10.1666 20.2283ZM10.1666 15.9703C8.59891 15.9703 7.32788 17.2413 7.32788 18.809C7.32788 20.3767 8.59891 21.6477 10.1666 21.6477C11.7343 21.6477 13.0053 20.3767 13.0053 18.809C13.0039 17.242 11.7336 15.9724 10.1666 15.9703Z" fill="black"/>
<path fill-rule="evenodd" clip-rule="evenodd" d="M19.3924 20.2283C18.6089 20.2283 17.9731 19.5925 17.9731 18.809C17.9731 18.0255 18.6089 17.3896 19.3924 17.3896C20.1759 17.3896 20.8118 18.0255 20.8118 18.809C20.8111 19.5925 20.1759 20.2276 19.3924 20.2283ZM19.3924 15.9703C17.8247 15.9703 16.5537 17.2413 16.5537 18.809C16.5537 20.3767 17.8247 21.6477 19.3924 21.6477C20.9601 21.6477 22.2311 20.3767 22.2311 18.809C22.229 17.242 20.9594 15.9724 19.3924 15.9703Z" fill="black"/>
</svg>
