<svg width="188" height="38" viewBox="0 0 188 38" fill="none" xmlns="http://www.w3.org/2000/svg">
<g clip-path="url(#clip0)">
<rect x="0.5" y="0.5" width="37" height="37" fill="#E58290" stroke="#E58290"/>
<path d="M12.1715 16.04V14.878H14.8035V25H13.5155V16.04H12.1715ZM22.9838 17.286C22.7785 16.25 22.1392 15.732 21.0658 15.732C20.2352 15.732 19.6145 16.054 19.2038 16.698C18.7932 17.3327 18.5925 18.3827 18.6018 19.848C18.8165 19.3627 19.1712 18.9847 19.6658 18.714C20.1698 18.434 20.7298 18.294 21.3458 18.294C22.3072 18.294 23.0725 18.5927 23.6418 19.19C24.2205 19.7873 24.5098 20.6133 24.5098 21.668C24.5098 22.3027 24.3838 22.872 24.1318 23.376C23.8892 23.88 23.5158 24.2813 23.0118 24.58C22.5172 24.8787 21.9152 25.028 21.2058 25.028C20.2445 25.028 19.4932 24.8133 18.9518 24.384C18.4105 23.9547 18.0325 23.362 17.8178 22.606C17.6032 21.85 17.4958 20.9167 17.4958 19.806C17.4958 16.3807 18.6905 14.668 21.0798 14.668C21.9945 14.668 22.7132 14.9153 23.2358 15.41C23.7585 15.9047 24.0665 16.53 24.1598 17.286H22.9838ZM21.0798 19.372C20.6785 19.372 20.3005 19.456 19.9458 19.624C19.5912 19.7827 19.3018 20.03 19.0778 20.366C18.8632 20.6927 18.7558 21.094 18.7558 21.57C18.7558 22.2793 18.9612 22.858 19.3718 23.306C19.7825 23.7447 20.3705 23.964 21.1358 23.964C21.7892 23.964 22.3072 23.7633 22.6898 23.362C23.0818 22.9513 23.2778 22.4007 23.2778 21.71C23.2778 20.982 23.0912 20.4127 22.7178 20.002C22.3445 19.582 21.7985 19.372 21.0798 19.372Z" fill="white"/>
<rect x="50.5" y="0.5" width="37" height="37" stroke="#E58290"/>
<path d="M62.1988 16.04V14.878H64.8308V25H63.5428V16.04H62.1988ZM69.2172 19.736C68.6945 19.5307 68.2932 19.232 68.0132 18.84C67.7332 18.448 67.5932 17.972 67.5932 17.412C67.5932 16.908 67.7192 16.4553 67.9712 16.054C68.2232 15.6433 68.5965 15.3213 69.0912 15.088C69.5952 14.8453 70.2018 14.724 70.9112 14.724C71.6205 14.724 72.2225 14.8453 72.7172 15.088C73.2212 15.3213 73.5992 15.6433 73.8512 16.054C74.1125 16.4553 74.2432 16.908 74.2432 17.412C74.2432 17.9533 74.0985 18.4293 73.8092 18.84C73.5198 19.2413 73.1232 19.54 72.6192 19.736C73.1978 19.9133 73.6552 20.226 73.9912 20.674C74.3365 21.1127 74.5092 21.6447 74.5092 22.27C74.5092 22.8767 74.3598 23.4087 74.0612 23.866C73.7625 24.314 73.3378 24.664 72.7872 24.916C72.2458 25.1587 71.6205 25.28 70.9112 25.28C70.2018 25.28 69.5765 25.1587 69.0352 24.916C68.5032 24.664 68.0878 24.314 67.7892 23.866C67.4905 23.4087 67.3412 22.8767 67.3412 22.27C67.3412 21.6447 67.5092 21.108 67.8452 20.66C68.1812 20.212 68.6385 19.904 69.2172 19.736ZM73.0112 17.566C73.0112 16.9967 72.8245 16.558 72.4512 16.25C72.0778 15.942 71.5645 15.788 70.9112 15.788C70.2672 15.788 69.7585 15.942 69.3852 16.25C69.0118 16.558 68.8252 17.0013 68.8252 17.58C68.8252 18.1027 69.0165 18.5227 69.3992 18.84C69.7912 19.1573 70.2952 19.316 70.9112 19.316C71.5365 19.316 72.0405 19.1573 72.4232 18.84C72.8152 18.5133 73.0112 18.0887 73.0112 17.566ZM70.9112 20.296C70.2205 20.296 69.6558 20.4593 69.2172 20.786C68.7785 21.1033 68.5592 21.584 68.5592 22.228C68.5592 22.8253 68.7692 23.306 69.1892 23.67C69.6185 24.034 70.1925 24.216 70.9112 24.216C71.6298 24.216 72.1992 24.034 72.6192 23.67C73.0392 23.306 73.2492 22.8253 73.2492 22.228C73.2492 21.6027 73.0345 21.1267 72.6052 20.8C72.1758 20.464 71.6112 20.296 70.9112 20.296Z" fill="#523D3D"/>
<rect x="150.5" y="0.5" width="37" height="37" stroke="#E58290"/>
<path d="M161.486 23.978C162.672 23.026 163.6 22.2467 164.272 21.64C164.944 21.024 165.509 20.3847 165.966 19.722C166.433 19.05 166.666 18.392 166.666 17.748C166.666 17.1413 166.517 16.6653 166.218 16.32C165.929 15.9653 165.458 15.788 164.804 15.788C164.17 15.788 163.675 15.9887 163.32 16.39C162.975 16.782 162.788 17.3093 162.76 17.972H161.528C161.566 16.9267 161.883 16.1193 162.48 15.55C163.078 14.9807 163.848 14.696 164.79 14.696C165.752 14.696 166.512 14.962 167.072 15.494C167.642 16.026 167.926 16.7587 167.926 17.692C167.926 18.4667 167.693 19.2227 167.226 19.96C166.769 20.688 166.246 21.332 165.658 21.892C165.07 22.4427 164.319 23.0867 163.404 23.824H168.22V24.888H161.486V23.978ZM169.889 23.978C171.074 23.026 172.003 22.2467 172.675 21.64C173.347 21.024 173.912 20.3847 174.369 19.722C174.836 19.05 175.069 18.392 175.069 17.748C175.069 17.1413 174.92 16.6653 174.621 16.32C174.332 15.9653 173.86 15.788 173.207 15.788C172.572 15.788 172.078 15.9887 171.723 16.39C171.378 16.782 171.191 17.3093 171.163 17.972H169.931C169.968 16.9267 170.286 16.1193 170.883 15.55C171.48 14.9807 172.25 14.696 173.193 14.696C174.154 14.696 174.915 14.962 175.475 15.494C176.044 16.026 176.329 16.7587 176.329 17.692C176.329 18.4667 176.096 19.2227 175.629 19.96C175.172 20.688 174.649 21.332 174.061 21.892C173.473 22.4427 172.722 23.0867 171.807 23.824H176.623V24.888H169.889V23.978Z" fill="#523D3D"/>
<rect x="100.5" y="0.5" width="37" height="37" stroke="#999999"/>
<path d="M100 38L138 0" stroke="#999999" stroke-linecap="square"/>
<path d="M110.617 23.978C111.802 23.026 112.731 22.2467 113.403 21.64C114.075 21.024 114.64 20.3847 115.097 19.722C115.564 19.05 115.797 18.392 115.797 17.748C115.797 17.1413 115.648 16.6653 115.349 16.32C115.06 15.9653 114.588 15.788 113.935 15.788C113.3 15.788 112.806 15.9887 112.451 16.39C112.106 16.782 111.919 17.3093 111.891 17.972H110.659C110.696 16.9267 111.014 16.1193 111.611 15.55C112.208 14.9807 112.978 14.696 113.921 14.696C114.882 14.696 115.643 14.962 116.203 15.494C116.772 16.026 117.057 16.7587 117.057 17.692C117.057 18.4667 116.824 19.2227 116.357 19.96C115.9 20.688 115.377 21.332 114.789 21.892C114.201 22.4427 113.45 23.0867 112.535 23.824H117.351V24.888H110.617V23.978ZM119.174 19.834C119.174 18.2287 119.435 16.978 119.958 16.082C120.481 15.1767 121.395 14.724 122.702 14.724C123.999 14.724 124.909 15.1767 125.432 16.082C125.955 16.978 126.216 18.2287 126.216 19.834C126.216 21.4673 125.955 22.7367 125.432 23.642C124.909 24.5473 123.999 25 122.702 25C121.395 25 120.481 24.5473 119.958 23.642C119.435 22.7367 119.174 21.4673 119.174 19.834ZM124.956 19.834C124.956 19.022 124.9 18.336 124.788 17.776C124.685 17.2067 124.466 16.7493 124.13 16.404C123.803 16.0587 123.327 15.886 122.702 15.886C122.067 15.886 121.582 16.0587 121.246 16.404C120.919 16.7493 120.7 17.2067 120.588 17.776C120.485 18.336 120.434 19.022 120.434 19.834C120.434 20.674 120.485 21.3787 120.588 21.948C120.7 22.5173 120.919 22.9747 121.246 23.32C121.582 23.6653 122.067 23.838 122.702 23.838C123.327 23.838 123.803 23.6653 124.13 23.32C124.466 22.9747 124.685 22.5173 124.788 21.948C124.9 21.3787 124.956 20.674 124.956 19.834Z" fill="#999999"/>
</g>
<defs>
<clipPath id="clip0">
<rect width="188" height="38" fill="white"/>
</clipPath>
</defs>
</svg>
