<?xml version="1.0" encoding="utf-8"?>
<!-- Generator: Adobe Illustrator 21.1.0, SVG Export Plug-In . SVG Version: 6.00 Build 0)  -->
<svg version="1.0" id="Capa_1" xmlns="http://www.w3.org/2000/svg" xmlns:xlink="http://www.w3.org/1999/xlink" x="0px" y="0px"
	 viewBox="0 0 396 99" style="enable-background:new 0 0 396 99;" xml:space="preserve">
<style type="text/css">
	.st0{clip-path:url(#SVGID_2_);fill:#ffffff;}
</style>
<g>
	<defs>
		<rect id="SVGID_1_" width="396" height="99"/>
	</defs>
	<clipPath id="SVGID_2_">
		<use xlink:href="#SVGID_1_"  style="overflow:visible;"/>
	</clipPath>
	<path class="st0" d="M28.7,72.7c0,1.9-1.8,3.7-3.9,3.7c-2.2,0-3.9-1.8-3.9-3.7V29.7c0-2.1,1.8-4.2,4.4-4.2h19.3
		c2.1,0,3.9,1.7,3.9,3.7c0,2.1-1.8,3.6-3.9,3.6H28.7v14.1h14.5c1.9,0,3.8,1.6,3.8,3.6c0,2.1-1.7,3.7-3.8,3.7H28.7V72.7z"/>
	<path class="st0" d="M80.3,75.7h-20c-2.3,0-4.3-1.8-4.3-4v-43c0-2,1.7-3.7,3.9-3.7c2.1,0,3.9,1.7,3.9,3.7v39.9h16.5
		c2,0,3.8,1.6,3.8,3.6C84.1,74.1,82.4,75.7,80.3,75.7"/>
	<path class="st0" d="M114.1,75.7H95.3c-2.9,0-5.5-1-5.5-4.2V29.7c0-2.1,1.8-4.2,4.4-4.2h19.3c2.1,0,3.9,1.7,3.9,3.8
		c0,2.1-1.8,3.6-3.9,3.6H97.6v14h14.5c1.9,0,3.8,1.6,3.8,3.6c0,2.1-1.7,3.7-3.8,3.7H97.6v14.2h16.6c2.1,0,3.9,1.6,3.9,3.5
		C118,74,116.3,75.7,114.1,75.7"/>
	<path class="st0" d="M130.2,73.9c-0.6,1.1-1.7,2.4-3.6,2.4c-2,0-3.8-1.8-3.8-3.7c0-0.7,0.3-1.6,0.6-2c4.3-7,8.4-14,12.7-21
		l-11.6-19.1c-0.3-0.6-0.5-1.4-0.5-2c0-1.8,1.7-3.6,3.7-3.6c1.8,0,3.1,1.3,4,2.8l9,15.5l9-15.5c0.7-1.2,2.2-2.8,4.1-2.8
		c1.9,0,3.6,1.6,3.6,3.7c0,0.6-0.2,1.3-0.5,1.9l-11.5,19.1l12.6,21c0.3,0.4,0.6,1.3,0.6,2c0,1.9-1.8,3.7-3.7,3.7
		c-1.9,0-3-1.2-3.7-2.4L140.6,56C137.2,61.9,133.7,67.9,130.2,73.9"/>
	<path class="st0" d="M175,72.5V56l-12.6-25.7c-0.1-0.4-0.4-1.1-0.4-1.7c0-2.1,2-3.8,4-3.8c1.2,0,2.5,0.5,3.1,1.6L179,47l9.8-20.5
		c0.6-1.1,1.9-1.6,3.1-1.6c2.1,0,4,1.7,4,3.8c0,0.5-0.2,1.2-0.4,1.7l-12.6,25.7v16.4c0,2-1.7,3.8-4,3.8
		C176.8,76.4,175,74.6,175,72.5"/>
	<path class="st0" d="M218.9,54.5c-1.5-0.8-3.6-1.6-5.7-2.3c-6.3-2.1-13-4.3-13-13.8c0-8.5,5.5-13.6,14.2-13.6
		c3.5,0,11.8,0.8,11.8,4.4c0,1.1-0.9,2.2-2.3,2.2c-0.8,0-1.7-0.3-2.5-0.6c-1.6-0.6-3.6-1.4-6.5-1.4c-5,0-9.7,2-9.7,8.7
		c0,5,2.8,6.8,4.5,7.7c1.6,0.8,3.7,1.6,5.7,2.3c6,2,12.9,4.6,12.9,13.7c0,9.2-6.5,14.5-15.4,14.5c-4.5,0-12.9-1.3-12.9-4.8
		c0-1.2,1-2.3,2.1-2.3c0.4,0,1.6,0.4,2.6,0.8c1.8,0.8,4.5,1.8,8.2,1.8c6.8,0,10.2-3.5,10.2-9.5C223.3,57.5,220.8,55.5,218.9,54.5"/>
	<path class="st0" d="M246.1,30h-10.4c-1.4,0-2.4-1-2.4-2.2c0-1.1,1.1-2.3,2.4-2.3h25.5c1.3,0,2.4,1,2.4,2.3c0,1.2-1.1,2.2-2.4,2.2
		h-10.4v43.9c0,1.3-1,2.3-2.3,2.3c-1.3,0-2.4-1.1-2.4-2.3V30z"/>
	<path class="st0" d="M267.7,58.3V42.7c0-9.8,4.5-18,16.2-18c11.5,0,16.1,8.2,16.1,18v15.6c0,10-5.4,18-16.1,18
		S267.7,68.3,267.7,58.3 M272.4,42.7v15.6c0,7.9,3.6,13.4,11.4,13.4c7.8,0,11.4-5.5,11.4-13.4V42.7c0-8-3.1-13.4-11.4-13.4
		C275.4,29.3,272.4,34.7,272.4,42.7"/>
	<path class="st0" d="M328.1,52.9l12,19.8l-0.1-0.1c0.1,0.4,0.3,0.9,0.3,1.5c0,1.2-1.6,2.1-2.6,2.1c-0.8,0-1.5-0.4-1.9-1.1l-13-22.1
		h-9.2v20.8c0,1.3-1.1,2.5-2.4,2.5c-1.2,0-2.3-1.1-2.3-2.5V28.5c0-1.6,1.4-3,2.8-3h12.7c11.6,0,15.3,7,15.3,14
		C339.6,46.9,335.1,51.5,328.1,52.9 M324,30h-10.4v18.6h10.9c6.8,0,10.4-3.1,10.4-9.1C334.8,34.9,332.9,30,324,30"/>
	<path class="st0" d="M371.7,75.6h-19.3c-2.1,0-4.1-0.6-4.1-2.8V28.4c0-1.5,1.2-2.9,2.9-2.9h19.7c1.3,0,2.3,1.1,2.3,2.4
		c0,1.2-1,2.1-2.3,2.1H353v18.1h16.5c1.2,0,2.3,1,2.3,2.3c0,1.3-1,2.3-2.3,2.3H353V71h18.6c1.2,0,2.3,1,2.3,2.1
		C374,74.6,372.9,75.6,371.7,75.6"/>
</g>
</svg>
