<svg width="23" height="21" viewBox="0 0 23 21" fill="none" xmlns="http://www.w3.org/2000/svg">
<path fill-rule="evenodd" clip-rule="evenodd" d="M20.7278 10.2107C19.5605 10.5598 18.7096 11.6398 18.7096 12.927V19.1779H12.2733V15.8616H10.6369V19.1779H4.20054V12.927C4.20054 11.6398 3.34963 10.5598 2.18236 10.2107V8.25794L11.4551 1.81066L20.7278 8.25794V10.2107ZM21.9715 7.1343L11.8805 0.119756C11.7496 0.0433922 11.6078 -0.000244141 11.4551 -0.000244141C11.3024 -0.000244141 11.1605 0.0433922 11.0296 0.119756L0.938723 7.1343C0.676905 7.29794 0.535087 7.58157 0.545996 7.88703V10.9088C0.545996 11.3561 0.916905 11.727 1.36418 11.727C2.02963 11.727 2.56418 12.2616 2.56418 12.927V19.9961C2.57509 20.4434 2.93509 20.8034 3.38236 20.8143H19.5278C19.9751 20.8034 20.3351 20.4434 20.346 19.9961V12.927C20.346 12.2616 20.8805 11.727 21.546 11.727C21.9933 11.727 22.3642 11.3561 22.3642 10.9088V7.88703C22.3751 7.58157 22.2333 7.29794 21.9715 7.1343Z" fill="#E58290"/>
</svg>
