<svg width="66" height="66" viewBox="0 0 66 66" fill="none" xmlns="http://www.w3.org/2000/svg">
<path d="M32.9941 65C24.4467 65 16.4108 61.6715 10.3667 55.6274C4.32269 49.5837 0.994141 41.5476 0.994141 33C0.994141 24.4526 4.32269 16.4166 10.3667 10.3726C16.4108 4.32855 24.4467 1 32.9941 1C41.5417 1 49.5777 4.32855 55.6216 10.3726C61.6656 16.4166 64.9941 24.4526 64.9941 33C64.9941 33.3021 64.7492 33.547 64.4471 33.547C64.1451 33.547 63.9001 33.3021 63.9001 33C63.9001 15.9584 50.0358 2.09402 32.9941 2.09402C15.9525 2.09402 2.08816 15.9584 2.08816 33C2.08816 50.0416 15.9525 63.906 32.9941 63.906C33.2962 63.906 33.5411 64.1509 33.5411 64.453C33.5411 64.7551 33.2962 65 32.9941 65Z" fill="#2E3438" stroke="#2E3438"/>
<path d="M23.4212 30.8121H2.90834C2.60625 30.8121 2.36133 30.5671 2.36133 30.2651C2.36133 29.963 2.60625 29.7181 2.90834 29.7181H23.4212C24.6276 29.7181 25.6092 28.7364 25.6092 27.53C25.6092 25.7204 27.0816 24.248 28.8912 24.248H32.9938C34.2002 24.248 35.1818 23.2664 35.1818 22.0599V20.6924C35.1818 19.486 34.2002 18.5044 32.9938 18.5044H28.8912C27.0816 18.5044 25.6092 17.032 25.6092 15.2223V13.8548C25.6092 12.6484 24.6276 11.6668 23.4212 11.6668H11.1135C10.8114 11.6668 10.5665 11.4218 10.5665 11.1198C10.5665 10.8177 10.8114 10.5728 11.1135 10.5728H23.4212C25.2308 10.5728 26.7032 12.0452 26.7032 13.8548V15.2223C26.7032 16.4288 27.6848 17.4104 28.8912 17.4104H32.9938C34.8033 17.4104 36.2759 18.8828 36.2759 20.6924V22.0599C36.2759 23.8696 34.8033 25.342 32.9938 25.342H28.8912C27.6848 25.342 26.7032 26.3236 26.7032 27.53C26.7032 29.3397 25.2308 30.8121 23.4212 30.8121Z" fill="#2E3438" stroke="#2E3438"/>
<path d="M24.7893 63.6326C24.4872 63.6326 24.2423 63.3877 24.2423 63.0856V60.3505C24.2423 58.5409 25.7147 57.0685 27.5243 57.0685H30.2594C31.4658 57.0685 32.4474 56.0869 32.4474 54.8804C32.4474 53.674 31.4658 52.6924 30.2594 52.6924H8.37904C8.07695 52.6924 7.83203 52.4475 7.83203 52.1454C7.83203 51.8433 8.07695 51.5984 8.37904 51.5984H30.2594C32.069 51.5984 33.5414 53.0709 33.5414 54.8804C33.5414 56.6901 32.069 58.1625 30.2594 58.1625H27.5243C26.3179 58.1625 25.3363 59.1441 25.3363 60.3505V63.0856C25.3363 63.3877 25.0914 63.6326 24.7893 63.6326Z" fill="#2E3438" stroke="#2E3438"/>
<path d="M53.3953 65C53.2527 65 53.1153 64.9442 53.0128 64.8441C52.5562 64.3974 41.828 53.8119 41.797 45.4214C41.7855 42.336 42.9814 39.43 45.1646 37.2387C47.3607 35.0345 50.2837 33.8206 53.3953 33.8206C56.5446 33.8206 59.4962 35.0547 61.7066 37.2962C63.869 39.4891 65.0363 42.3766 64.9938 45.427C64.8997 52.1525 54.2585 64.301 53.8057 64.8145C53.7064 64.927 53.5654 64.994 53.4156 64.9996C53.4087 64.9999 53.402 65 53.3953 65ZM53.3953 34.9146C50.5769 34.9146 47.9289 36.0142 45.9397 38.0108C43.9632 39.9948 42.8806 42.6251 42.891 45.4174C42.9167 52.4619 51.3867 61.6048 53.3676 63.6469C55.294 61.383 63.8209 51.0485 63.8998 45.4118C63.9382 42.6567 62.8826 40.0472 60.9276 38.0644C58.9245 36.0332 56.2495 34.9146 53.3953 34.9146Z" fill="#FAEA37" stroke="#FAEA37"/>
<path d="M53.2346 51.7323C49.842 51.7323 47.082 48.9718 47.082 45.5793C47.082 42.1867 49.8422 39.4265 53.2346 39.4265C56.6276 39.4265 59.3875 42.1867 59.3875 45.5793C59.3875 48.9721 56.6273 51.7323 53.2346 51.7323ZM53.2346 40.5205C50.4454 40.5205 48.176 42.7899 48.176 45.5793C48.176 48.3686 50.4454 50.6383 53.2346 50.6383C56.0241 50.6383 58.2935 48.3686 58.2935 45.5793C58.2935 42.7899 56.0241 40.5205 53.2346 40.5205Z" fill="#FAEA37" stroke="#FAEA37"/>
</svg>
