<svg width="74" height="69" viewBox="0 0 74 69" fill="none" xmlns="http://www.w3.org/2000/svg">
<path d="M34.992 56.8477C28.931 56.8477 23.1182 54.4399 18.8324 50.1541C14.5466 45.8683 12.1388 40.0555 12.1388 33.9945V33.4232C12.1388 33.1201 12.0184 32.8295 11.8042 32.6152C11.5899 32.4009 11.2992 32.2805 10.9962 32.2805C10.6931 32.2805 10.4025 32.4009 10.1882 32.6152C9.9739 32.8295 9.85352 33.1201 9.85352 33.4232V33.9945C9.85352 40.6616 12.502 47.0557 17.2164 51.7701C21.9308 56.4845 28.3249 59.133 34.992 59.133C35.295 59.133 35.5857 59.0126 35.8 58.7983C36.0143 58.584 36.1346 58.2934 36.1346 57.9903C36.1346 57.6873 36.0143 57.3966 35.8 57.1823C35.5857 56.968 35.295 56.8477 34.992 56.8477Z" fill="#2E3438"/>
<path d="M13.3061 21.3566C13.3031 21.4023 13.3031 21.4481 13.3061 21.4937C13.2983 21.5697 13.2983 21.6463 13.3061 21.7223C13.2902 21.8666 13.2902 22.0122 13.3061 22.1565C13.2997 22.2249 13.2997 22.2937 13.3061 22.3622C13.3022 22.4154 13.3022 22.4689 13.3061 22.5221C17.5539 29.1634 22.5285 35.3108 28.1378 40.8504C29.806 42.5186 31.4972 44.1184 33.1654 45.6267C33.2745 45.7379 33.4052 45.8256 33.5494 45.8844C33.6936 45.9433 33.8483 45.972 34.004 45.9689C34.1597 45.9658 34.3132 45.9309 34.4549 45.8663C34.5966 45.8017 34.7237 45.7089 34.8282 45.5934C34.9327 45.4779 35.0126 45.3423 35.0628 45.1949C35.113 45.0475 35.1325 44.8913 35.1202 44.7361C35.1079 44.5808 35.064 44.4297 34.9911 44.292C34.9183 44.1544 34.818 44.0331 34.6966 43.9355C33.0512 42.4501 31.4058 40.8732 29.7603 39.3649C24.4473 34.1474 19.7051 28.3787 15.6142 22.1565C17.4112 19.1504 19.875 16.5975 22.8154 14.695C25.7558 12.7925 29.0941 11.5913 32.5726 11.184C36.0511 10.7768 39.5766 11.1745 42.8769 12.3464C46.1773 13.5183 49.1641 15.4331 51.6068 17.9428C54.0495 20.4525 55.8827 23.4901 56.9648 26.821C58.0469 30.1518 58.349 33.6868 57.8478 37.153C57.3465 40.6191 56.0553 43.9237 54.0739 46.8116C52.0925 49.6994 49.4739 52.0932 46.4203 53.8081C46.2897 53.8831 46.1752 53.9831 46.0833 54.1024C45.9914 54.2217 45.9239 54.3579 45.8847 54.5033C45.8454 54.6486 45.8352 54.8003 45.8545 54.9496C45.8739 55.0989 45.9225 55.243 45.9975 55.3735C46.0725 55.5041 46.1725 55.6186 46.2918 55.7105C46.4111 55.8024 46.5473 55.8699 46.6926 55.9091C46.838 55.9484 46.9897 55.9586 47.139 55.9393C47.2883 55.9199 47.4324 55.8713 47.5629 55.7963C50.8985 53.8712 53.7472 51.2053 55.8891 48.0046C58.0309 44.8038 59.4087 41.1537 59.9161 37.336C60.4236 33.5183 60.047 29.635 58.8155 25.9859C57.5841 22.3368 55.5307 19.0194 52.8137 16.2898C50.0968 13.5602 46.789 11.4914 43.1457 10.2429C39.5024 8.99449 35.6209 8.59986 31.8008 9.08949C27.9808 9.57912 24.3243 10.9399 21.1136 13.0669C17.9029 15.1938 15.2239 18.03 13.2832 21.3566H13.3061Z" fill="#2E3438"/>
<path d="M62.0076 45.2154C61.8561 44.9517 61.606 44.7591 61.3124 44.6798C61.0189 44.6005 60.7058 44.6411 60.4422 44.7926C60.1785 44.9441 59.9858 45.1942 59.9065 45.4877C59.8273 45.7813 59.8678 46.0944 60.0194 46.358C64.59 54.1967 65.9155 60.2756 63.6073 62.6066C59.5852 66.6059 43.3823 59.3386 26.5166 42.473C9.65101 25.6074 2.38371 9.40448 6.38301 5.38232C8.66833 3.09701 14.7701 4.39964 22.6316 8.97027C22.7609 9.06431 22.9085 9.13016 23.0649 9.16358C23.2212 9.19699 23.3828 9.19722 23.5393 9.16426C23.6957 9.13129 23.8435 9.06585 23.9731 8.97218C24.1027 8.87852 24.2111 8.7587 24.2915 8.62048C24.3719 8.48225 24.4223 8.32871 24.4396 8.16976C24.4569 8.01082 24.4407 7.85001 24.3919 7.69774C24.3432 7.54547 24.263 7.40512 24.1566 7.28578C24.0502 7.16643 23.92 7.07074 23.7743 7.0049C14.633 1.74867 7.95988 0.583162 4.76044 3.7826C-1.56989 10.0901 10.0395 29.2182 24.8941 44.0727C36.9148 56.0935 51.7465 65.9889 60.3165 65.9889C61.2117 66.0407 62.1081 65.9117 62.9523 65.6093C63.7965 65.307 64.5711 64.8376 65.2299 64.2292C68.4065 61.0298 67.2638 54.2652 62.0076 45.2154Z" fill="#2E3438"/>
<path d="M37.1218 47.5691C36.9324 47.8031 36.8429 48.1024 36.8729 48.4019C36.9028 48.7014 37.0498 48.9771 37.2818 49.1689C39.1557 50.7 41.0297 52.1398 42.8808 53.4424C43.0038 53.5294 43.1428 53.5914 43.2898 53.6247C43.4368 53.658 43.5889 53.6621 43.7375 53.6366C43.886 53.6111 44.0281 53.5567 44.1556 53.4763C44.2831 53.3959 44.3935 53.2912 44.4805 53.1682C44.5675 53.0451 44.6295 52.9061 44.6628 52.7592C44.6961 52.6122 44.7002 52.4601 44.6747 52.3115C44.6492 52.163 44.5948 52.0209 44.5144 51.8934C44.434 51.7659 44.3293 51.6555 44.2063 51.5684C42.4009 50.2887 40.5498 48.8946 38.7444 47.4092C38.6279 47.3118 38.4932 47.2387 38.3482 47.194C38.2031 47.1493 38.0506 47.1339 37.8995 47.1488C37.7485 47.1637 37.6019 47.2086 37.4684 47.2807C37.3348 47.3529 37.217 47.4509 37.1218 47.5691Z" fill="#2E3438"/>
<path d="M68.2755 4.57063H69.4181V5.71329C69.4181 6.01634 69.5385 6.30698 69.7528 6.52127C69.9671 6.73556 70.2577 6.85595 70.5608 6.85595C70.8638 6.85595 71.1545 6.73556 71.3688 6.52127C71.5831 6.30698 71.7034 6.01634 71.7034 5.71329V4.57063H72.8461C73.1492 4.57063 73.4398 4.45024 73.6541 4.23595C73.8684 4.02166 73.9888 3.73102 73.9888 3.42797C73.9888 3.12492 73.8684 2.83428 73.6541 2.61999C73.4398 2.4057 73.1492 2.28532 72.8461 2.28532H71.7034V1.14266C71.7034 0.839606 71.5831 0.548967 71.3688 0.334677C71.1545 0.120387 70.8638 0 70.5608 0C70.2577 0 69.9671 0.120387 69.7528 0.334677C69.5385 0.548967 69.4181 0.839606 69.4181 1.14266V2.28532H68.2755C67.9724 2.28532 67.6818 2.4057 67.4675 2.61999C67.2532 2.83428 67.1328 3.12492 67.1328 3.42797C67.1328 3.73102 67.2532 4.02166 67.4675 4.23595C67.6818 4.45024 67.9724 4.57063 68.2755 4.57063Z" fill="#F4EC3C"/>
<path d="M52.2774 4.57063H53.4201V5.71329C53.4201 6.01634 53.5405 6.30698 53.7548 6.52127C53.969 6.73556 54.2597 6.85595 54.5627 6.85595C54.8658 6.85595 55.1564 6.73556 55.3707 6.52127C55.585 6.30698 55.7054 6.01634 55.7054 5.71329V4.57063H56.8481C57.1511 4.57063 57.4417 4.45024 57.656 4.23595C57.8703 4.02166 57.9907 3.73102 57.9907 3.42797C57.9907 3.12492 57.8703 2.83428 57.656 2.61999C57.4417 2.4057 57.1511 2.28532 56.8481 2.28532H55.7054V1.14266C55.7054 0.839606 55.585 0.548967 55.3707 0.334677C55.1564 0.120387 54.8658 0 54.5627 0C54.2597 0 53.969 0.120387 53.7548 0.334677C53.5405 0.548967 53.4201 0.839606 53.4201 1.14266V2.28532H52.2774C51.9744 2.28532 51.6837 2.4057 51.4694 2.61999C51.2552 2.83428 51.1348 3.12492 51.1348 3.42797C51.1348 3.73102 51.2552 4.02166 51.4694 4.23595C51.6837 4.45024 51.9744 4.57063 52.2774 4.57063Z" fill="#F4EC3C"/>
<path d="M65.9884 18.2825H67.131V19.4252C67.131 19.7283 67.2514 20.0189 67.4657 20.2332C67.68 20.4475 67.9706 20.5679 68.2737 20.5679C68.5767 20.5679 68.8674 20.4475 69.0817 20.2332C69.2959 20.0189 69.4163 19.7283 69.4163 19.4252V18.2825H70.559C70.862 18.2825 71.1527 18.1622 71.367 17.9479C71.5813 17.7336 71.7016 17.4429 71.7016 17.1399C71.7016 16.8368 71.5813 16.5462 71.367 16.3319C71.1527 16.1176 70.862 15.9972 70.559 15.9972H69.4163V14.8546C69.4163 14.5515 69.2959 14.2609 69.0817 14.0466C68.8674 13.8323 68.5767 13.7119 68.2737 13.7119C67.9706 13.7119 67.68 13.8323 67.4657 14.0466C67.2514 14.2609 67.131 14.5515 67.131 14.8546V15.9972H65.9884C65.6853 15.9972 65.3947 16.1176 65.1804 16.3319C64.9661 16.5462 64.8457 16.8368 64.8457 17.1399C64.8457 17.4429 64.9661 17.7336 65.1804 17.9479C65.3947 18.1622 65.6853 18.2825 65.9884 18.2825Z" fill="#F4EC3C"/>
<path d="M5.71329 64.4181H4.57063V63.2755C4.57063 62.9724 4.45024 62.6818 4.23595 62.4675C4.02166 62.2532 3.73102 62.1328 3.42797 62.1328C3.12492 62.1328 2.83428 62.2532 2.61999 62.4675C2.4057 62.6818 2.28532 62.9724 2.28532 63.2755V64.4181H1.14266C0.839606 64.4181 0.548967 64.5385 0.334677 64.7528C0.120387 64.9671 0 65.2577 0 65.5608C0 65.8638 0.120387 66.1545 0.334677 66.3688C0.548967 66.5831 0.839606 66.7034 1.14266 66.7034H2.28532V67.8461C2.28532 68.1492 2.4057 68.4398 2.61999 68.6541C2.83428 68.8684 3.12492 68.9888 3.42797 68.9888C3.73102 68.9888 4.02166 68.8684 4.23595 68.6541C4.45024 68.4398 4.57063 68.1492 4.57063 67.8461V66.7034H5.71329C6.01634 66.7034 6.30698 66.5831 6.52127 66.3688C6.73556 66.1545 6.85595 65.8638 6.85595 65.5608C6.85595 65.2577 6.73556 64.9671 6.52127 64.7528C6.30698 64.5385 6.01634 64.4181 5.71329 64.4181Z" fill="#F4EC3C"/>
<path d="M7.99649 50.7065H6.85383V49.5638C6.85383 49.2607 6.73345 48.9701 6.51916 48.7558C6.30487 48.5415 6.01423 48.4211 5.71118 48.4211C5.40812 48.4211 5.11749 48.5415 4.9032 48.7558C4.68891 48.9701 4.56852 49.2607 4.56852 49.5638V50.7065H3.42586C3.12281 50.7065 2.83217 50.8268 2.61788 51.0411C2.40359 51.2554 2.2832 51.5461 2.2832 51.8491C2.2832 52.1522 2.40359 52.4428 2.61788 52.6571C2.83217 52.8714 3.12281 52.9918 3.42586 52.9918H4.56852V54.1344C4.56852 54.4375 4.68891 54.7281 4.9032 54.9424C5.11749 55.1567 5.40812 55.2771 5.71118 55.2771C6.01423 55.2771 6.30487 55.1567 6.51916 54.9424C6.73345 54.7281 6.85383 54.4375 6.85383 54.1344V52.9918H7.99649C8.29954 52.9918 8.59018 52.8714 8.80447 52.6571C9.01876 52.4428 9.13915 52.1522 9.13915 51.8491C9.13915 51.5461 9.01876 51.2554 8.80447 51.0411C8.59018 50.8268 8.29954 50.7065 7.99649 50.7065Z" fill="#F4EC3C"/>
<path d="M19.4242 62.1327H18.2816V60.9901C18.2816 60.687 18.1612 60.3964 17.9469 60.1821C17.7326 59.9678 17.442 59.8474 17.1389 59.8474C16.8359 59.8474 16.5452 59.9678 16.3309 60.1821C16.1166 60.3964 15.9963 60.687 15.9963 60.9901V62.1327H14.8536C14.5505 62.1327 14.2599 62.2531 14.0456 62.4674C13.8313 62.6817 13.7109 62.9723 13.7109 63.2754C13.7109 63.5784 13.8313 63.8691 14.0456 64.0834C14.2599 64.2977 14.5505 64.418 14.8536 64.418H15.9963V65.5607C15.9963 65.8638 16.1166 66.1544 16.3309 66.3687C16.5452 66.583 16.8359 66.7034 17.1389 66.7034C17.442 66.7034 17.7326 66.583 17.9469 66.3687C18.1612 66.1544 18.2816 65.8638 18.2816 65.5607V64.418H19.4242C19.7273 64.418 20.0179 64.2977 20.2322 64.0834C20.4465 63.8691 20.5669 63.5784 20.5669 63.2754C20.5669 62.9723 20.4465 62.6817 20.2322 62.4674C20.0179 62.2531 19.7273 62.1327 19.4242 62.1327Z" fill="#F4EC3C"/>
</svg>
