<svg width="58" height="64" viewBox="0 0 58 64" fill="none" xmlns="http://www.w3.org/2000/svg">
<path d="M11.3079 41.309C11.3079 41.3777 11.3079 41.3777 11.3079 41.309L28.8419 50.0416C28.9106 50.0416 28.9106 50.1103 28.9794 50.1103H29.0482C29.1169 50.1103 29.1857 50.1103 29.2544 50.1103C29.3232 50.1103 29.392 50.1103 29.4607 50.1103H29.5295C29.5982 50.1103 29.667 50.1103 29.667 50.0416L47.1322 41.309H47.201L47.2698 41.2402L47.3385 41.1714L47.4073 41.1027L47.476 41.0339L47.5448 40.9652C47.5448 40.9652 47.5448 40.8964 47.6136 40.8964C47.6136 40.8964 47.6136 40.8276 47.6823 40.8276V40.7589V40.6901C47.6823 40.6214 47.6823 40.6214 47.6823 40.5526V40.4838V23.0186C47.6823 22.9499 47.6823 22.8123 47.6136 22.7436V22.6748C47.6136 22.6061 47.5448 22.5373 47.5448 22.4685C47.5448 22.4685 47.5448 22.4685 47.5448 22.3998C47.476 22.331 47.476 22.2622 47.4073 22.1935C47.4073 22.1935 47.4073 22.1935 47.3385 22.1247C47.2698 22.056 47.201 22.056 47.1322 21.9872L29.7358 13.3234C29.4607 13.1858 29.1169 13.1858 28.8419 13.3234L11.3079 22.056C11.2391 22.056 11.1704 22.1247 11.1016 22.1935C11.1016 22.1935 11.1016 22.1935 11.0329 22.2622C10.9641 22.331 10.8953 22.3998 10.8953 22.4685C10.8953 22.4685 10.8953 22.4685 10.8953 22.5373C10.8953 22.6061 10.8266 22.6748 10.8266 22.7436V22.8123C10.8266 22.8811 10.7578 22.9499 10.7578 23.0874V40.5526V40.6214C10.7578 40.6901 10.7578 40.6901 10.7578 40.7589V40.8276V40.8964C10.7578 40.8964 10.7578 40.9652 10.8266 40.9652C10.8266 40.9652 10.8266 41.0339 10.8953 41.0339L10.9641 41.1027L11.0329 41.1714L11.1016 41.2402L11.1704 41.309C11.2391 41.309 11.2391 41.309 11.3079 41.309ZM37.9871 35.1893C38.5371 35.1893 39.0185 34.7079 39.0185 34.1579V27.9694L45.6883 24.6689V39.7962L30.2859 47.4974V32.3701L36.9556 29.0696V34.2266C36.9556 34.7079 37.437 35.1893 37.9871 35.1893ZM28.223 47.4974L12.8206 39.7962V24.6689L28.223 32.3701V47.4974ZM29.2544 15.4549L44.3818 23.0186L37.9871 26.2504L22.8597 18.6867L29.2544 15.4549ZM20.5218 19.7869L35.6492 27.3505L29.2544 30.5823L14.1271 23.0186L20.5218 19.7869Z" fill="#2E3438"/>
<path d="M57.5151 31.7511C57.5151 31.2011 57.0338 30.7197 56.4837 30.7197C55.9337 30.7197 55.4523 31.2011 55.4523 31.7511C55.4523 45.572 44.6569 56.9863 31.0423 57.8802L34.9616 55.9549C35.443 55.6799 35.6492 55.061 35.443 54.5797C35.1679 54.0984 34.5491 53.8921 34.0677 54.0984L26.0227 58.0865C25.6789 58.2928 25.4727 58.6366 25.4727 58.9804C25.4727 59.3242 25.6789 59.7367 26.0227 59.8743L34.0677 63.8624C34.2053 63.9312 34.3428 63.9999 34.5491 63.9999C34.9616 63.9999 35.3054 63.7936 35.443 63.4498C35.718 62.9685 35.5117 62.3497 34.9616 62.0746L30.836 60.0118C45.6883 59.1179 57.5151 46.8097 57.5151 31.7511Z" fill="#FAEA37"/>
<path d="M23.5477 8.02878C23.0663 8.30382 22.86 8.92267 23.0663 9.40399C23.2726 9.7478 23.6164 9.95408 23.9602 9.95408C24.0977 9.95408 24.2353 9.88532 24.4415 9.81656L32.4866 5.82844C32.8304 5.62215 33.0366 5.27835 33.0366 4.93455C33.0366 4.59074 32.8304 4.17818 32.4866 4.04066L24.5103 0.121297C24.029 -0.153746 23.4101 0.0525364 23.1351 0.602622C22.86 1.08395 23.0663 1.70279 23.6164 1.97784L26.9169 3.62809C12.4084 4.79703 0.994141 16.9677 0.994141 31.7512C0.994141 32.3013 1.47547 32.7826 2.02555 32.7826C2.57564 32.7826 3.05696 32.3013 3.05696 31.7512C3.05696 17.5178 14.4025 5.96596 28.4984 5.55339L23.5477 8.02878Z" fill="#FAEA37"/>
</svg>
