<svg xmlns="http://www.w3.org/2000/svg" width="28" viewBox="0 0 31.2 30.8"><style type="text/css">  
	.instagram_logo{fill:#ffffff;}
</style><path class="instagram_logo" d="M15.4 29.6c-3.8 0-6.7-0.2-7.6-0.4 -3-0.8-4.7-2.7-5.2-5.6C2.2 21.1 2.1 10.4 2.8 8.2c0.8-2.9 2.7-4.5 5.6-5C9.5 3 12 2.9 15.2 2.9c2.4 0 5 0.1 6.8 0.2 2 0.1 3.5 0.7 4.8 1.9 1.2 1.1 1.9 2.6 2.1 4.4 0.2 2.2 0.4 12.4-0.2 14.7 -0.8 2.9-2.7 4.7-5.7 5.2C21.8 29.5 18.7 29.6 15.4 29.6 15.4 29.6 15.4 29.6 15.4 29.6zM15.7 4.4c-2.9 0-5.6 0.1-6.7 0.2 -2.7 0.3-4.4 2-4.8 4.6 -0.4 2.5-0.3 12.1 0 14.1 0.4 2.2 1.7 3.7 3.8 4.3 1.3 0.4 5.3 0.4 7.6 0.4 2.9 0 5.8-0.1 6.9-0.2 2.7-0.3 4.4-2 4.8-4.6 0.4-2.5 0.3-11.3 0.1-13.7 -0.3-2.7-2-4.5-4.6-4.9C21.6 4.5 18.9 4.4 15.7 4.4zM15.6 22.8c-3.6 0-6.6-3-6.6-6.6 0-1.8 0.7-3.4 1.9-4.7 1.2-1.2 2.9-1.9 4.7-1.9 1.8 0 3.4 0.7 4.7 1.9 1.2 1.2 1.9 2.9 1.9 4.7C22.2 19.9 19.3 22.8 15.6 22.8L15.6 22.8zM15.7 11.2c-2.8 0-5.1 2.3-5.1 5.1 0 2.8 2.3 5.1 5 5.1 2.8 0 5.1-2.3 5.1-5.1C20.7 13.5 18.5 11.2 15.7 11.2L15.7 11.2zM23 10c-0.6 0-1.2-0.5-1.2-1.2 0-0.3 0.1-0.6 0.3-0.8 0.2-0.2 0.5-0.3 0.8-0.3 0.7 0 1.2 0.5 1.2 1.2C24.2 9.5 23.7 10 23 10z"/></svg>