<svg width="169" height="78" viewBox="0 0 169 78" fill="none" xmlns="http://www.w3.org/2000/svg">
<path d="M110.672 17.6124L108.743 16.9846C106.38 16.2622 105.561 15.4892 105.561 14.3821C105.561 13.2713 106.333 12.5494 108.068 12.5494C110.334 12.5494 113.325 13.4639 117.086 15.2493L118.341 6.37933C114.722 4.88388 111.348 4.11464 108.31 4.11464C101.027 4.11464 96.1071 8.78926 96.1071 14.9593C96.1071 19.9239 98.8558 23.7819 104.452 25.5641L106.379 26.1919C109.082 27.1064 109.804 27.8799 109.804 28.9864C109.804 29.9993 108.985 30.8665 106.91 30.8665C104.018 30.8665 100.495 29.6615 96.6394 27.1063L95.3843 36.1221C99.2901 38.2883 103.197 39.3992 107.104 39.3992C115.592 39.3992 119.546 33.9983 119.546 28.2645C119.546 23.6372 116.894 19.6845 110.672 17.6124Z" fill="black"/>
<path d="M133.817 4.88441H123.786V38.6261H133.817V4.88441Z" fill="black"/>
<path d="M149.031 29.9009V25.9487H158.485V17.224H149.031V13.6086H160.801L159.594 4.88388H139.146V38.6261H160.029L161.234 29.9009H149.031Z" fill="black"/>
<path d="M23.6896 4.11464C13.7547 3.9226 5.36334 12.0663 5.55548 21.7572C5.36334 31.4432 13.7547 39.5912 23.6896 39.3992C30.2553 39.5261 36.0858 35.9752 39.2704 30.7799C37.6364 28.1144 36.6531 25.0418 36.7188 21.7572C36.6531 18.4704 37.6364 15.3983 39.2704 12.7323C36.0858 7.53803 30.2553 3.98769 23.6896 4.11464ZM23.6896 29.8068C19.2036 29.8068 15.7789 26.2865 15.7789 21.7572C15.7789 17.2235 19.2036 13.707 23.6896 13.707C28.174 13.707 31.5982 17.2235 31.5982 21.7572C31.5982 26.2865 28.174 29.8068 23.6896 29.8068Z" fill="black"/>
<path d="M80.6114 4.88441H67.9773V9.53698C71.1237 12.7355 73.0785 17.053 72.9854 21.7572C73.0785 26.4598 71.1237 30.7766 67.9773 33.9757V38.6261H78.008V29.7557H80.6114C88.2804 29.7557 93.9237 24.4576 93.9237 17.2751C93.9237 10.0927 88.2804 4.88441 80.6114 4.88441ZM79.4553 21.3725H78.008V13.2713H79.4553C82.1082 13.2713 83.8929 14.912 83.8929 17.2751C83.8929 19.6339 82.1087 21.3725 79.4553 21.3725Z" fill="black"/>
<path d="M54.8533 13.707C50.3668 13.707 46.9426 17.2235 46.9426 21.7566C46.9426 26.286 50.3668 29.8068 54.8533 29.8068C59.3377 29.8068 62.7619 26.286 62.7619 21.7566C62.7613 17.224 59.3377 13.707 54.8533 13.707Z" fill="black"/>
<path d="M37.0365 68.2973C35.6543 68.2973 34.4643 67.8772 33.5316 67.0757V74.5927H27.0046V52.9975L32.791 52.452V54.2536C33.8529 52.9351 35.2668 52.2917 37.0359 52.2917C40.9902 52.2917 44.2044 55.8281 44.2044 60.2945C44.3024 64.6975 40.8605 68.3915 37.0365 68.2973ZM35.5892 57.6603C34.1107 57.6603 32.9858 58.7829 32.9858 60.294C32.9858 61.805 34.1107 62.9277 35.5892 62.9277C37.0677 62.9277 38.1925 61.805 38.1925 60.294C38.192 58.7829 37.0677 57.6603 35.5892 57.6603Z" fill="#808285"/>
<path d="M53.9566 52.2299C58.6827 52.132 62.637 55.8604 62.5411 60.3268C62.637 64.7933 58.6827 68.4238 53.9566 68.3614C49.1972 68.4238 45.2762 64.7933 45.3726 60.3268C45.2768 55.8604 49.1977 52.132 53.9566 52.2299ZM53.9566 57.6614C52.4781 57.6614 51.3511 58.8158 51.3511 60.2951C51.3511 61.7744 52.4781 62.9288 53.9566 62.9288C55.4351 62.9288 56.56 61.7744 56.56 60.2951C56.56 58.8158 55.4356 57.6614 53.9566 57.6614Z" fill="#808285"/>
<path d="M72.2938 52.2299C77.0199 52.132 80.9742 55.8604 80.8778 60.3268C80.9742 64.7933 77.0199 68.4238 72.2938 68.3614C67.5343 68.4238 63.6134 64.7933 63.7092 60.3268C63.6134 55.8604 67.5349 52.132 72.2938 52.2299ZM72.2938 57.6614C70.8153 57.6614 69.6904 58.8158 69.6904 60.2951C69.6904 61.7744 70.8153 62.9288 72.2938 62.9288C73.7723 62.9288 74.8972 61.7744 74.8972 60.2951C74.8972 58.8158 73.7723 57.6614 72.2938 57.6614Z" fill="#808285"/>
<path d="M92.8499 68.2973C91.4678 68.2973 90.2778 67.8772 89.3445 67.0757V74.5927H82.8181V52.9975L88.6045 52.452V54.2536C89.6669 52.9351 91.0808 52.2917 92.8499 52.2917C96.8042 52.2917 100.018 55.8281 100.018 60.2945C100.116 64.6975 96.674 68.3915 92.8499 68.2973ZM91.4021 57.6603C89.9237 57.6603 88.7988 58.7829 88.7988 60.294C88.7988 61.805 89.9237 62.9277 91.4021 62.9277C92.8806 62.9277 94.0055 61.805 94.0055 60.294C94.0055 58.7829 92.8806 57.6603 91.4021 57.6603Z" fill="#808285"/>
<path d="M101.989 62.8976C103.468 63.6039 104.722 63.9573 105.751 63.9573C106.362 63.9573 106.651 63.6706 106.651 63.2822C106.651 62.9293 106.395 62.6426 105.88 62.4818L105.268 62.2542C102.986 61.3865 101.604 59.7814 101.604 57.3714C101.604 54.3493 103.95 52.2299 107.679 52.2299C109.191 52.2299 110.926 52.5833 112.503 53.1288L111.893 57.4656C110.573 56.8572 109.159 56.4726 108.291 56.4726C107.743 56.4726 107.455 56.7593 107.455 57.1127C107.455 57.4344 107.679 57.6619 108.096 57.8222L108.707 58.046C111.539 59.0745 112.856 60.648 112.856 63.0891C112.856 66.2408 110.38 68.3608 106.553 68.3608C104.786 68.3608 103.018 67.9757 101.378 67.2344L101.989 62.8976Z" fill="#808285"/>
<path d="M118.266 44.4197C120.355 44.4197 122.028 46.0604 122.028 47.9872C122.028 49.9491 120.355 51.5548 118.266 51.5548C116.175 51.5548 114.504 49.9496 114.504 47.9872C114.504 46.0604 116.176 44.4197 118.266 44.4197ZM114.988 53.0653L121.514 52.4219V67.8471H114.988V53.0653Z" fill="#808285"/>
<path d="M139.167 66.1435C137.336 67.4307 134.698 68.3608 132.16 68.3608C127.304 68.3608 123.51 64.86 123.51 60.3263C123.51 55.7969 127.047 52.2293 131.806 52.2293C136.049 52.2293 139.458 55.0906 139.778 59.9105L130.004 63.0579C130.583 63.541 131.324 63.7647 132.223 63.7647C133.8 63.7647 135.567 63.0891 137.528 61.7077L139.167 66.1435ZM134.057 57.9169C133.542 57.2418 132.77 56.826 131.87 56.826C130.295 56.826 129.17 57.9169 128.913 59.5888L134.057 57.9169Z" fill="#808285"/>
<path d="M164.905 9.94421C163.52 9.97272 162.347 8.79895 162.374 7.41593C162.347 6.03829 163.52 4.85914 164.905 4.88658C166.282 4.85914 167.463 6.03829 167.435 7.41593C167.463 8.79895 166.281 9.97272 164.905 9.94421ZM164.905 5.30832C163.759 5.28734 162.769 6.27121 162.797 7.41593C162.769 8.56065 163.759 9.55098 164.905 9.52301C166.051 9.55098 167.034 8.56065 167.013 7.41593C167.034 6.27121 166.051 5.28734 164.905 5.30832ZM166.002 8.76452H165.432L164.524 7.6537V8.76452H164.075V6.02538H164.961C165.579 6.02538 165.987 6.36159 165.987 6.8823C165.987 7.35245 165.636 7.6892 165.123 7.71717L166.002 8.76452ZM164.525 7.35945H164.954C165.298 7.35945 165.523 7.16203 165.523 6.87423C165.523 6.58644 165.298 6.41161 164.954 6.41161H164.525V7.35945Z" fill="black"/>
</svg>
