<svg width="21" height="21" viewBox="0 0 21 21" fill="none" xmlns="http://www.w3.org/2000/svg">
<path fill-rule="evenodd" clip-rule="evenodd" d="M1.50218 9.00218C1.50218 4.86018 4.86018 1.50218 9.00218 1.50218C13.1442 1.50218 16.5022 4.86018 16.5022 9.00218C16.5022 13.1442 13.1442 16.5022 9.00218 16.5022C4.86018 16.5022 1.50218 13.1442 1.50218 9.00218ZM19.7822 18.7222L15.8722 14.8122C19.0822 11.0172 18.6072 5.33818 14.8122 2.12818C11.0172 -1.08082 5.33818 -0.606818 2.12818 3.18818C-1.08082 6.98318 -0.606818 12.6622 3.18818 15.8722C6.54318 18.7102 11.4572 18.7102 14.8122 15.8722L18.7222 19.7822C19.0152 20.0742 19.4892 20.0742 19.7822 19.7822C20.0742 19.4892 20.0742 19.0152 19.7822 18.7222Z" fill="#232019"/>
</svg>
