<svg width="154" height="36" viewBox="0 0 154 36" fill="none" xmlns="http://www.w3.org/2000/svg">
<rect x="0.5" y="0.5" width="153" height="35" stroke="#E58290"/>
<path d="M23.976 13.312V23H22.702V15.776L19.482 23H18.586L15.352 15.762V23H14.078V13.312H15.45L19.034 21.32L22.618 13.312H23.976ZM33.4866 18.87C33.4866 19.1127 33.4726 19.3693 33.4446 19.64H27.3126C27.3593 20.396 27.6159 20.9887 28.0826 21.418C28.5586 21.838 29.1326 22.048 29.8046 22.048C30.3553 22.048 30.8126 21.922 31.1766 21.67C31.5499 21.4087 31.8113 21.0633 31.9606 20.634H33.3326C33.1273 21.3713 32.7166 21.9733 32.1006 22.44C31.4846 22.8973 30.7193 23.126 29.8046 23.126C29.0766 23.126 28.4233 22.9627 27.8446 22.636C27.2753 22.3093 26.8273 21.8473 26.5006 21.25C26.1739 20.6433 26.0106 19.9433 26.0106 19.15C26.0106 18.3567 26.1693 17.6613 26.4866 17.064C26.8039 16.4667 27.2473 16.0093 27.8166 15.692C28.3953 15.3653 29.0579 15.202 29.8046 15.202C30.5326 15.202 31.1766 15.3607 31.7366 15.678C32.2966 15.9953 32.7259 16.434 33.0246 16.994C33.3326 17.5447 33.4866 18.17 33.4866 18.87ZM32.1706 18.604C32.1706 18.1187 32.0633 17.7033 31.8486 17.358C31.6339 17.0033 31.3399 16.7373 30.9666 16.56C30.6026 16.3733 30.1966 16.28 29.7486 16.28C29.1046 16.28 28.5539 16.4853 28.0966 16.896C27.6486 17.3067 27.3919 17.876 27.3266 18.604H32.1706ZM39.2562 15.188C40.1896 15.188 40.9456 15.4727 41.5242 16.042C42.1029 16.602 42.3922 17.414 42.3922 18.478V23H41.1322V18.66C41.1322 17.8947 40.9409 17.3113 40.5582 16.91C40.1756 16.4993 39.6529 16.294 38.9902 16.294C38.3182 16.294 37.7816 16.504 37.3802 16.924C36.9882 17.344 36.7922 17.9553 36.7922 18.758V23H35.5182V15.328H36.7922V16.42C37.0442 16.028 37.3849 15.7247 37.8142 15.51C38.2529 15.2953 38.7336 15.188 39.2562 15.188ZM48.1693 23.126C47.4506 23.126 46.7973 22.9627 46.2093 22.636C45.6306 22.3093 45.1733 21.8473 44.8373 21.25C44.5106 20.6433 44.3473 19.9433 44.3473 19.15C44.3473 18.366 44.5153 17.6753 44.8513 17.078C45.1966 16.4713 45.6633 16.0093 46.2513 15.692C46.8393 15.3653 47.4973 15.202 48.2253 15.202C48.9533 15.202 49.6113 15.3653 50.1993 15.692C50.7873 16.0093 51.2493 16.4667 51.5853 17.064C51.9306 17.6613 52.1033 18.3567 52.1033 19.15C52.1033 19.9433 51.926 20.6433 51.5713 21.25C51.226 21.8473 50.7546 22.3093 50.1573 22.636C49.56 22.9627 48.8973 23.126 48.1693 23.126ZM48.1693 22.006C48.6266 22.006 49.056 21.8987 49.4573 21.684C49.8586 21.4693 50.1806 21.1473 50.4233 20.718C50.6753 20.2887 50.8013 19.766 50.8013 19.15C50.8013 18.534 50.68 18.0113 50.4373 17.582C50.1946 17.1527 49.8773 16.8353 49.4853 16.63C49.0933 16.4153 48.6686 16.308 48.2113 16.308C47.7446 16.308 47.3153 16.4153 46.9233 16.63C46.5406 16.8353 46.2326 17.1527 45.9993 17.582C45.766 18.0113 45.6493 18.534 45.6493 19.15C45.6493 19.7753 45.7613 20.3027 45.9853 20.732C46.2186 21.1613 46.5266 21.4833 46.9093 21.698C47.292 21.9033 47.712 22.006 48.1693 22.006ZM64.7348 16.098C64.7348 16.91 64.4548 17.5867 63.8948 18.128C63.3441 18.66 62.4995 18.926 61.3608 18.926H59.4848V23H58.2108V13.242H61.3608C62.4621 13.242 63.2975 13.508 63.8668 14.04C64.4455 14.572 64.7348 15.258 64.7348 16.098ZM61.3608 17.876C62.0701 17.876 62.5928 17.722 62.9288 17.414C63.2648 17.106 63.4328 16.6673 63.4328 16.098C63.4328 14.894 62.7421 14.292 61.3608 14.292H59.4848V17.876H61.3608ZM67.9422 16.574C68.1662 16.1353 68.4836 15.7947 68.8942 15.552C69.3142 15.3093 69.8229 15.188 70.4202 15.188V16.504H70.0842C68.6562 16.504 67.9422 17.2787 67.9422 18.828V23H66.6682V15.328H67.9422V16.574ZM79.2409 18.87C79.2409 19.1127 79.2269 19.3693 79.1989 19.64H73.0669C73.1136 20.396 73.3702 20.9887 73.8369 21.418C74.3129 21.838 74.8869 22.048 75.5589 22.048C76.1096 22.048 76.5669 21.922 76.9309 21.67C77.3042 21.4087 77.5656 21.0633 77.7149 20.634H79.0869C78.8816 21.3713 78.4709 21.9733 77.8549 22.44C77.2389 22.8973 76.4736 23.126 75.5589 23.126C74.8309 23.126 74.1776 22.9627 73.5989 22.636C73.0296 22.3093 72.5816 21.8473 72.2549 21.25C71.9282 20.6433 71.7649 19.9433 71.7649 19.15C71.7649 18.3567 71.9236 17.6613 72.2409 17.064C72.5582 16.4667 73.0016 16.0093 73.5709 15.692C74.1496 15.3653 74.8122 15.202 75.5589 15.202C76.2869 15.202 76.9309 15.3607 77.4909 15.678C78.0509 15.9953 78.4802 16.434 78.7789 16.994C79.0869 17.5447 79.2409 18.17 79.2409 18.87ZM77.9249 18.604C77.9249 18.1187 77.8176 17.7033 77.6029 17.358C77.3882 17.0033 77.0942 16.7373 76.7209 16.56C76.3569 16.3733 75.9509 16.28 75.5029 16.28C74.8589 16.28 74.3082 16.4853 73.8509 16.896C73.4029 17.3067 73.1462 17.876 73.0809 18.604H77.9249ZM80.7965 19.15C80.7965 18.3567 80.9552 17.666 81.2725 17.078C81.5899 16.4807 82.0285 16.0187 82.5885 15.692C83.1579 15.3653 83.8065 15.202 84.5345 15.202C85.4772 15.202 86.2519 15.4307 86.8585 15.888C87.4745 16.3453 87.8805 16.98 88.0765 17.792H86.7045C86.5739 17.3253 86.3172 16.9567 85.9345 16.686C85.5612 16.4153 85.0945 16.28 84.5345 16.28C83.8065 16.28 83.2185 16.532 82.7705 17.036C82.3225 17.5307 82.0985 18.2353 82.0985 19.15C82.0985 20.074 82.3225 20.788 82.7705 21.292C83.2185 21.796 83.8065 22.048 84.5345 22.048C85.0945 22.048 85.5612 21.9173 85.9345 21.656C86.3079 21.3947 86.5645 21.0213 86.7045 20.536H88.0765C87.8712 21.32 87.4605 21.95 86.8445 22.426C86.2285 22.8927 85.4585 23.126 84.5345 23.126C83.8065 23.126 83.1579 22.9627 82.5885 22.636C82.0285 22.3093 81.5899 21.8473 81.2725 21.25C80.9552 20.6527 80.7965 19.9527 80.7965 19.15ZM90.7844 14.082C90.5418 14.082 90.3364 13.998 90.1684 13.83C90.0004 13.662 89.9164 13.4567 89.9164 13.214C89.9164 12.9713 90.0004 12.766 90.1684 12.598C90.3364 12.43 90.5418 12.346 90.7844 12.346C91.0178 12.346 91.2138 12.43 91.3724 12.598C91.5404 12.766 91.6244 12.9713 91.6244 13.214C91.6244 13.4567 91.5404 13.662 91.3724 13.83C91.2138 13.998 91.0178 14.082 90.7844 14.082ZM91.4004 15.328V23H90.1264V15.328H91.4004ZM97.2678 23.126C96.5491 23.126 95.8958 22.9627 95.3078 22.636C94.7291 22.3093 94.2718 21.8473 93.9358 21.25C93.6091 20.6433 93.4458 19.9433 93.4458 19.15C93.4458 18.366 93.6138 17.6753 93.9498 17.078C94.2951 16.4713 94.7618 16.0093 95.3498 15.692C95.9378 15.3653 96.5958 15.202 97.3238 15.202C98.0518 15.202 98.7098 15.3653 99.2978 15.692C99.8858 16.0093 100.348 16.4667 100.684 17.064C101.029 17.6613 101.202 18.3567 101.202 19.15C101.202 19.9433 101.024 20.6433 100.67 21.25C100.324 21.8473 99.8531 22.3093 99.2558 22.636C98.6584 22.9627 97.9958 23.126 97.2678 23.126ZM97.2678 22.006C97.7251 22.006 98.1544 21.8987 98.5558 21.684C98.9571 21.4693 99.2791 21.1473 99.5218 20.718C99.7738 20.2887 99.8998 19.766 99.8998 19.15C99.8998 18.534 99.7784 18.0113 99.5358 17.582C99.2931 17.1527 98.9758 16.8353 98.5838 16.63C98.1918 16.4153 97.7671 16.308 97.3098 16.308C96.8431 16.308 96.4138 16.4153 96.0218 16.63C95.6391 16.8353 95.3311 17.1527 95.0978 17.582C94.8644 18.0113 94.7478 18.534 94.7478 19.15C94.7478 19.7753 94.8598 20.3027 95.0838 20.732C95.3171 21.1613 95.6251 21.4833 96.0078 21.698C96.3904 21.9033 96.8104 22.006 97.2678 22.006Z" fill="#E58290"/>
<path d="M143.147 15.5817L137.258 21.4702" stroke="#E58290" stroke-linecap="square"/>
<path d="M136.978 21.7506L131.09 15.8621" stroke="#E58290" stroke-linecap="square"/>
</svg>
