<svg width="274" height="140" viewBox="0 0 274 140" fill="none" xmlns="http://www.w3.org/2000/svg">
<path d="M115.182 83.514C120.889 95.6291 130.824 103.674 142.111 103.674C153.399 103.674 163.335 95.6299 169.041 83.514H115.182Z" fill="#BAD8EB"/>
<path d="M170.088 81.1419C170.405 80.3662 170.703 79.5738 170.986 78.7706H113.237C113.52 79.5738 113.818 80.3662 114.135 81.1419H170.088Z" fill="#92D5AC"/>
<path d="M148.303 95.7002C148.303 94.4853 147.313 93.569 145.788 93.0293C144.929 94.0418 143.176 94.8643 141.379 94.7196L141.366 94.7187C141.189 94.7045 141.192 94.4434 141.369 94.4317C143.856 94.2778 146.298 92.1516 145.146 90.0815C144.629 89.1502 143.822 88.6608 142.826 88.2784C142.635 88.2039 142.427 88.3453 142.427 88.5511C142.427 89.9694 141.461 89.8004 139.632 90.4907C138.047 91.089 137.497 92.3072 137.601 93.39C136.557 93.9405 135.919 94.7237 135.919 95.701C135.92 100.001 148.303 100.014 148.303 95.7002Z" fill="#8F5927"/>
<path d="M177.703 114.94H161.094V101.425C171.75 92.9005 178.89 77.4293 178.89 59.7951C178.89 59.1399 178.359 58.6086 177.703 58.6086H165.839C165.184 58.6086 164.652 59.1399 164.652 59.7951C164.652 60.4494 165.184 60.9807 165.839 60.9807H176.506C176.035 85.9372 160.788 106.046 142.111 106.046C123.434 106.046 108.186 85.9372 107.716 60.9807H118.383C119.038 60.9807 119.57 60.4494 119.57 59.7951C119.57 59.1399 119.038 58.6086 118.383 58.6086H106.519C105.863 58.6086 105.332 59.1399 105.332 59.7951C105.332 77.4293 112.471 92.8996 123.128 101.425V114.94H106.519C105.863 114.94 105.332 115.471 105.332 116.126C105.332 116.781 105.863 117.312 106.519 117.312H177.703C178.359 117.312 178.89 116.781 178.89 116.126C178.89 115.471 178.359 114.94 177.703 114.94ZM125.502 103.156C130.495 106.512 136.137 108.418 142.111 108.418C148.087 108.418 153.728 106.512 158.722 103.156V114.94H125.502V103.156Z" fill="#808285"/>
<path d="M124.447 134.9H123.226V139.056H118.527V123.247H124.447C128.039 123.247 130.683 125.686 130.683 129.051C130.683 132.417 128.039 134.9 124.447 134.9ZM123.904 127.176H123.226V130.97H123.904C125.147 130.97 125.983 130.157 125.983 129.05C125.983 127.945 125.147 127.176 123.904 127.176Z" fill="black"/>
<path d="M140.177 122.884C144.832 122.795 148.763 126.611 148.672 131.152C148.762 135.692 144.831 139.507 140.177 139.418C135.521 139.507 131.591 135.692 131.681 131.152C131.591 126.612 135.522 122.795 140.177 122.884ZM140.177 127.38C138.075 127.38 136.471 129.03 136.471 131.153C136.471 133.275 138.076 134.925 140.177 134.925C142.278 134.925 143.883 133.275 143.883 131.153C143.883 129.03 142.278 127.38 140.177 127.38Z" fill="black"/>
<path d="M157.987 122.884C162.642 122.795 166.573 126.611 166.482 131.152C166.572 135.692 162.641 139.507 157.987 139.418C153.331 139.507 149.401 135.692 149.491 131.152C149.401 126.612 153.331 122.795 157.987 122.884ZM157.987 127.38C155.886 127.38 154.281 129.03 154.281 131.153C154.281 133.275 155.886 134.925 157.987 134.925C160.088 134.925 161.692 133.275 161.692 131.153C161.692 129.03 160.087 127.38 157.987 127.38Z" fill="black"/>
<path d="M48.8969 37.8626L44.6671 37.5831C44.2637 36.5908 43.2918 35.8887 42.1559 35.8887H38.2467C37.3594 34.4864 35.7974 33.5509 34.0186 33.5509H3.17397C0.565634 33.5509 0.176392 38.4291 0.176392 41.3367C0.176392 44.2444 0.565634 49.1225 3.17397 49.1225H34.0195C35.7983 49.1225 37.3603 48.1871 38.2476 46.7855H42.1567C43.2926 46.7855 44.2645 46.0827 44.668 45.0911L48.8977 44.8117C49.5213 44.7698 50.006 44.2527 50.006 43.6285V39.0457C50.006 38.4207 49.5205 37.9036 48.8969 37.8626ZM34.0186 46.7504H3.3891C3.06013 46.2592 2.54951 44.3875 2.54951 41.3367C2.54951 38.286 3.06013 36.415 3.3891 35.923H34.0195C35.2592 35.923 36.2947 36.7866 36.5726 37.9421C36.5784 37.9705 36.5918 37.9973 36.5977 38.0258C36.6328 38.1956 36.6513 38.3722 36.6513 38.5537V44.1205C36.6513 44.3013 36.6328 44.4778 36.5977 44.6485C36.5918 44.677 36.5784 44.7029 36.5726 44.7314C36.2947 45.8869 35.2584 46.7504 34.0186 46.7504ZM42.4974 44.0728C42.4974 44.2603 42.3451 44.4134 42.1567 44.4134H39.016C39.021 44.3155 39.0244 44.2184 39.0244 44.1205V38.5537C39.0244 38.4558 39.021 38.3579 39.016 38.2609H42.1567C42.3451 38.2609 42.4974 38.4132 42.4974 38.6006V44.0728ZM47.6329 42.5182L44.8705 42.7006V39.9728L47.6329 40.1552V42.5182Z" fill="black"/>
<path d="M47.1985 79.9571C46.543 79.9571 46.0123 79.4257 46.0123 78.7714V50.309C46.0123 49.6539 46.543 49.1226 47.1985 49.1226C47.8539 49.1226 48.3846 49.6539 48.3846 50.309V78.7714C48.3846 79.4257 47.8539 79.9571 47.1985 79.9571Z" fill="#92D5AC"/>
<path d="M33.0795 78.2401C32.9447 78.2401 32.8074 78.2183 32.6735 78.1689C32.0583 77.9439 31.7402 77.2636 31.9645 76.6494L41.7031 49.9032C41.9274 49.2874 42.608 48.9719 43.224 49.1945C43.8393 49.4187 44.1574 50.099 43.9331 50.7148L34.1945 77.4594C34.0195 77.9422 33.5642 78.2401 33.0795 78.2401Z" fill="#92D5AC"/>
<path d="M61.3175 78.24C60.8328 78.24 60.3774 77.9422 60.2025 77.4594L50.4639 50.714C50.2404 50.0981 50.5577 49.4179 51.1729 49.1936C51.7899 48.9711 52.4704 49.2865 52.6939 49.9023L62.4325 76.6486C62.6568 77.2627 62.3387 77.9438 61.7235 78.1681C61.5895 78.2183 61.4523 78.24 61.3175 78.24Z" fill="#92D5AC"/>
<path d="M20.2688 83.5148C25.976 95.6299 35.9113 103.675 47.1985 103.675C58.4856 103.675 68.4209 95.6308 74.1281 83.5148H20.2688Z" fill="#BAD8EB"/>
<path d="M82.7911 114.941H66.1818V101.425C76.8378 92.9005 83.9764 77.4301 83.9764 59.7959C83.9764 59.1408 83.4457 58.6094 82.7902 58.6094H70.9263C70.2709 58.6094 69.7394 59.1408 69.7394 59.7959C69.7394 60.4503 70.2709 60.9816 70.9263 60.9816H81.5924C81.1228 85.938 65.8737 106.046 47.1977 106.046C28.5216 106.046 13.2725 85.938 12.8029 60.9816H23.4698C24.1244 60.9816 24.656 60.4503 24.656 59.7959C24.656 59.1408 24.1244 58.6094 23.4698 58.6094H11.6051C10.9505 58.6094 10.4189 59.1408 10.4189 59.7959C10.4189 77.4309 17.5584 92.9022 28.2161 101.427V114.941H11.6068C10.9513 114.941 10.4198 115.472 10.4198 116.127C10.4198 116.782 10.9513 117.313 11.6068 117.313H82.7911C83.4465 117.313 83.9772 116.782 83.9772 116.127C83.9772 115.472 83.4465 114.941 82.7911 114.941ZM30.5892 103.157C35.5824 106.513 41.2234 108.419 47.1977 108.419C53.1727 108.419 58.8146 106.513 63.8087 103.156V114.941H30.5892V103.157Z" fill="#808285"/>
<path d="M13.9974 133.659C15.8047 134.857 17.4546 135.42 18.8106 135.42C19.7816 135.42 20.1659 135.013 20.1659 134.54C20.1659 134.02 19.8268 133.658 18.562 133.229L17.658 132.936C15.0371 132.101 13.7488 130.293 13.7488 127.966C13.7488 125.075 16.0533 122.885 19.4652 122.885C20.8891 122.885 22.4703 123.248 24.1646 123.948L23.5778 128.103C21.8149 127.268 20.4145 126.838 19.3522 126.838C18.5386 126.838 18.1778 127.177 18.1778 127.696C18.1778 128.216 18.562 128.578 19.6686 128.915L20.5727 129.211C23.4874 130.181 24.7296 132.034 24.7296 134.201C24.7296 136.889 22.8772 139.419 18.9002 139.419C17.0703 139.419 15.2396 138.9 13.4098 137.883L13.9974 133.659Z" fill="black"/>
<path d="M32.4157 134.901H31.1952V139.057H26.4958V123.248H32.4157C36.0084 123.248 38.6519 125.687 38.6519 129.052C38.6519 132.418 36.0084 134.901 32.4157 134.901ZM31.8732 127.176H31.1952V130.971H31.8732C33.1163 130.971 33.9517 130.158 33.9517 129.051C33.9517 127.945 33.1163 127.176 31.8732 127.176Z" fill="black"/>
<path d="M47.5132 139.057L44.7558 133.14V139.057H40.1017V123.248H46.0667C49.9307 123.248 52.0769 125.347 52.0769 128.261C52.0769 130.227 51.0599 131.806 49.3204 132.62L52.9584 139.056H47.5132V139.057ZM45.2983 130.384C46.6317 130.384 47.3767 129.729 47.3767 128.667C47.3767 127.606 46.6317 126.951 45.2983 126.951H44.7558V130.384H45.2983Z" fill="black"/>
<path d="M63.6496 136.437H58.9268L58.2044 139.058H53.1877L58.4973 123.247H64.079L69.3886 139.058H64.3728L63.6496 136.437ZM62.5873 132.462L61.299 127.719L59.989 132.462H62.5873Z" fill="black"/>
<path d="M76.9164 133.411V139.057H72.2171V133.411L67.3135 123.248H72.5335L74.5668 128.262L76.6 123.248H81.8192L76.9164 133.411Z" fill="black"/>
<path d="M209.496 129.323H213.698V133.547H209.496V139.058H204.796V123.247H214.128L214.715 127.47H209.496V129.323Z" fill="black"/>
<path d="M226.127 134.54L225.495 139.057H216.254V123.247H220.953V134.54H226.127Z" fill="black"/>
<path d="M226.876 123.247H231.576V132.666C231.576 134.044 232.411 134.924 233.699 134.924C234.987 134.924 235.823 134.043 235.823 132.666V123.247H240.523V132.915C240.523 136.755 237.835 139.35 233.699 139.35C229.565 139.35 226.876 136.708 226.876 132.847V123.247Z" fill="black"/>
<path d="M242.697 133.659C244.505 134.857 246.154 135.42 247.511 135.42C248.482 135.42 248.866 135.013 248.866 134.54C248.866 134.02 248.527 133.658 247.262 133.229L246.358 132.936C243.737 132.101 242.449 130.293 242.449 127.966C242.449 125.075 244.753 122.885 248.165 122.885C249.589 122.885 251.17 123.248 252.865 123.948L252.278 128.103C250.515 127.268 249.114 126.838 248.052 126.838C247.238 126.838 246.878 127.177 246.878 127.696C246.878 128.216 247.262 128.578 248.369 128.915L249.273 129.211C252.186 130.181 253.43 132.034 253.43 134.201C253.43 136.889 251.577 139.419 247.6 139.419C245.769 139.419 243.94 138.9 242.109 137.883L242.697 133.659Z" fill="black"/>
<path d="M269.25 123.247V139.058H264.549V133.275H259.895V139.058H255.196V123.247H259.895V128.758H264.549V123.247H269.25Z" fill="black"/>
<path d="M272.616 114.941H256.007V101.425C266.664 92.9005 273.803 77.4301 273.803 59.7959C273.803 59.1408 273.272 58.6094 272.616 58.6094H260.752C260.097 58.6094 259.565 59.1408 259.565 59.7959C259.565 60.4503 260.097 60.9816 260.752 60.9816H271.419C270.948 85.938 255.701 106.046 237.024 106.046C218.347 106.046 203.099 85.938 202.629 60.9816H213.295C213.95 60.9816 214.482 60.4503 214.482 59.7959C214.482 59.1408 213.95 58.6094 213.295 58.6094H201.431C200.777 58.6094 200.244 59.1408 200.244 59.7959C200.244 77.4301 207.384 92.9005 218.041 101.426V114.941H201.431C200.777 114.941 200.244 115.472 200.244 116.127C200.244 116.782 200.777 117.313 201.431 117.313H272.615C273.271 117.313 273.802 116.782 273.802 116.127C273.803 115.472 273.272 114.941 272.616 114.941ZM220.415 103.156C225.408 106.513 231.049 108.419 237.025 108.419C243 108.419 248.642 106.513 253.635 103.156V114.941H220.415V103.156Z" fill="#808285"/>
<path d="M237.024 103.674C242.395 103.674 247.458 101.849 251.907 98.6355H222.141C226.591 101.85 231.654 103.674 237.024 103.674Z" fill="#BAD8EB"/>
<path d="M257.147 93.8912H216.902C217.657 94.7296 218.441 95.5195 219.25 96.2625H254.8C255.608 95.5195 256.391 94.7296 257.147 93.8912Z" fill="#92D5AC"/>
<path d="M59.0624 12.3589C59.0624 18.9089 53.7503 24.218 47.1985 24.218C40.6458 24.218 35.3337 18.9089 35.3337 12.3589C35.3337 5.80896 40.6458 0.499878 47.1985 0.499878C53.7503 0.499878 59.0624 5.80896 59.0624 12.3589Z" fill="black"/>
<path d="M48.6072 8.02045V16.4589H46.9423V10.5055L45.5 11.2084L45.2648 9.673L48.6072 8.02045Z" fill="white"/>
<path d="M153.975 12.3589C153.975 18.9089 148.663 24.218 142.111 24.218C135.559 24.218 130.248 18.9089 130.248 12.3589C130.248 5.80896 135.559 0.499878 142.111 0.499878C148.663 0.499878 153.975 5.80896 153.975 12.3589Z" fill="black"/>
<path d="M142.242 14.9361H144.763L144.528 16.4598H139.159L141.962 13.1195C142.865 12.0293 143.193 11.4193 143.193 10.8453C143.193 10.1307 142.665 9.62615 141.997 9.62615C141.329 9.62615 140.801 10.1541 140.801 10.8336C140.801 11.1155 140.883 11.4084 141.047 11.7247L139.44 11.9238C139.265 11.5607 139.182 11.1858 139.182 10.7867C139.159 9.32158 140.449 8.0556 142.008 8.09074C143.567 8.09074 144.822 9.25129 144.822 10.7984C144.822 11.7833 144.351 12.6384 143.051 14.0098L142.242 14.9361Z" fill="white"/>
<path d="M248.888 12.3589C248.888 18.9089 243.576 24.218 237.024 24.218C230.472 24.218 225.16 18.9089 225.16 12.3589C225.16 5.80896 230.472 0.499878 237.024 0.499878C243.577 0.499878 248.888 5.80896 248.888 12.3589Z" fill="black"/>
<path d="M236.615 16.612C235.712 16.612 234.891 16.2723 234.141 15.6038L234.786 14.2792C235.255 14.7838 235.9 15.1235 236.568 15.1235C237.413 15.1235 238.046 14.5495 238.046 13.7638C238.046 12.9906 237.435 12.4158 236.428 12.4158C236.123 12.4158 235.771 12.4635 235.384 12.5447L236.978 9.73155H234.363L234.587 8.25555H239.582L237.647 11.3138C238.843 11.5021 239.711 12.5212 239.711 13.8106C239.711 15.4155 238.362 16.612 236.615 16.612Z" fill="white"/>
<path d="M70.9288 13.5437C70.6107 13.5437 70.3093 13.4182 70.0833 13.2007C69.8657 12.9747 69.7401 12.6735 69.7401 12.3556C69.7401 12.046 69.8657 11.7364 70.0833 11.5188C70.5353 11.0837 71.3222 11.0837 71.7658 11.5188C71.9835 11.7447 72.109 12.046 72.109 12.3556C72.109 12.5145 72.0839 12.6735 72.0253 12.8158C71.9667 12.958 71.8747 13.0835 71.7658 13.2007C71.5398 13.4182 71.2469 13.5437 70.9288 13.5437Z" fill="#808285"/>
<path d="M110.414 12.3556C110.414 11.7029 110.95 11.1758 111.602 11.1758C112.255 11.1758 112.791 11.7029 112.791 12.3556C112.791 13.0166 112.255 13.5437 111.602 13.5437C110.95 13.5437 110.414 13.0166 110.414 12.3556ZM103.633 12.3556C103.633 11.7029 104.169 11.1758 104.822 11.1758C105.483 11.1758 106.011 11.7029 106.011 12.3556C106.011 13.0166 105.483 13.5437 104.822 13.5437C104.169 13.5437 103.633 13.0166 103.633 12.3556ZM96.8615 12.3556C96.8615 11.7029 97.3889 11.1758 98.0418 11.1758C98.7031 11.1758 99.2305 11.7029 99.2305 12.3556C99.2305 13.0166 98.7031 13.5437 98.0418 13.5437C97.3889 13.5437 96.8615 13.0166 96.8615 12.3556ZM90.0812 12.3556C90.0812 11.7029 90.6085 11.1758 91.2615 11.1758C91.9228 11.1758 92.4501 11.7029 92.4501 12.3556C92.4501 13.0166 91.9228 13.5437 91.2615 13.5437C90.6085 13.5437 90.0812 13.0166 90.0812 12.3556ZM83.3008 12.3556C83.3008 11.7029 83.8282 11.1758 84.4811 11.1758C85.1424 11.1758 85.6698 11.7029 85.6698 12.3556C85.6698 13.0166 85.1424 13.5437 84.4811 13.5437C83.8282 13.5437 83.3008 13.0166 83.3008 12.3556ZM76.5205 12.3556C76.5205 11.7029 77.0479 11.1758 77.7092 11.1758C78.3621 11.1758 78.8894 11.7029 78.8894 12.3556C78.8894 13.0166 78.3621 13.5437 77.7092 13.5437C77.0479 13.5437 76.5205 13.0166 76.5205 12.3556Z" fill="#808285"/>
<path d="M118.383 13.5437C118.065 13.5437 117.772 13.4182 117.546 13.2007C117.32 12.9747 117.194 12.6735 117.194 12.3556C117.194 12.046 117.32 11.7364 117.546 11.5188C117.989 11.0837 118.776 11.0837 119.22 11.5188C119.446 11.7447 119.571 12.046 119.571 12.3556C119.571 12.5145 119.538 12.6735 119.479 12.8158C119.421 12.958 119.337 13.0835 119.22 13.2007C118.994 13.4182 118.701 13.5437 118.383 13.5437Z" fill="#808285"/>
<path d="M165.838 13.5437C165.528 13.5437 165.226 13.4182 165 13.2007C164.774 12.9747 164.657 12.6735 164.657 12.3556C164.657 12.046 164.782 11.7364 165 11.5188C165.443 11.0837 166.238 11.0837 166.683 11.5188C166.901 11.7447 167.026 12.046 167.026 12.3556C167.026 12.5145 166.993 12.6735 166.934 12.8158C166.875 12.958 166.792 13.0835 166.683 13.2007C166.456 13.4182 166.155 13.5437 165.838 13.5437Z" fill="#808285"/>
<path d="M205.33 12.3556C205.33 11.7029 205.857 11.1758 206.519 11.1758C207.172 11.1758 207.699 11.7029 207.699 12.3556C207.699 13.0166 207.172 13.5437 206.519 13.5437C205.857 13.5437 205.33 13.0166 205.33 12.3556ZM198.55 12.3556C198.55 11.7029 199.086 11.1758 199.738 11.1758C200.391 11.1758 200.928 11.7029 200.928 12.3556C200.928 13.0166 200.391 13.5437 199.738 13.5437C199.085 13.5437 198.55 13.0166 198.55 12.3556ZM191.769 12.3556C191.769 11.7029 192.305 11.1758 192.958 11.1758C193.611 11.1758 194.147 11.7029 194.147 12.3556C194.147 13.0166 193.611 13.5437 192.958 13.5437C192.305 13.5437 191.769 13.0166 191.769 12.3556ZM184.989 12.3556C184.989 11.7029 185.525 11.1758 186.178 11.1758C186.83 11.1758 187.366 11.7029 187.366 12.3556C187.366 13.0166 186.83 13.5437 186.178 13.5437C185.525 13.5437 184.989 13.0166 184.989 12.3556ZM178.209 12.3556C178.209 11.7029 178.745 11.1758 179.397 11.1758C180.05 11.1758 180.586 11.7029 180.586 12.3556C180.586 13.0166 180.05 13.5437 179.397 13.5437C178.744 13.5437 178.209 13.0166 178.209 12.3556ZM171.437 12.3556C171.437 11.7029 171.964 11.1758 172.617 11.1758C173.27 11.1758 173.806 11.7029 173.806 12.3556C173.806 13.0166 173.27 13.5437 172.617 13.5437C171.964 13.5437 171.437 13.0166 171.437 12.3556Z" fill="#808285"/>
<path d="M213.299 13.5437C213.14 13.5437 212.989 13.5186 212.839 13.4517C212.696 13.3931 212.571 13.3094 212.454 13.2006C212.345 13.0835 212.261 12.958 212.202 12.8157C212.135 12.6735 212.11 12.5145 212.11 12.3555C212.11 12.046 212.236 11.7447 212.454 11.5188C212.73 11.2427 213.139 11.1172 213.524 11.1925C213.6 11.2092 213.676 11.2343 213.751 11.2678C213.818 11.2929 213.893 11.3264 213.952 11.3766C214.019 11.4184 214.077 11.4686 214.136 11.5188C214.186 11.5774 214.237 11.636 214.287 11.7029C214.329 11.7615 214.362 11.8368 214.387 11.9037C214.421 11.979 214.446 12.0543 214.463 12.1296C214.472 12.2049 214.48 12.2802 214.48 12.3555C214.48 12.6735 214.362 12.9747 214.137 13.2006C213.91 13.4182 213.609 13.5437 213.299 13.5437Z" fill="#808285"/>
</svg>
