<svg xmlns="http://www.w3.org/2000/svg" width="32" height="32" viewBox="0 0 24 24"><style type="text/css">  
	.you_logo{fill:#ffffff;}
</style>
<g>
	<g>
		<path class="you_logo" d="M19.3,3.5H4.8C2.2,3.5,0,5.7,0,8.3v8.1c0,2.7,2.2,4.8,4.8,4.8h14.5c2.7,0,4.8-2.2,4.8-4.8V8.3C24,5.7,21.9,3.5,19.3,3.5z
			 M23.1,16.4c0,2.1-1.7,3.8-3.8,3.8H4.8c-2.1,0-3.8-1.7-3.8-3.8v-8c0-2.1,1.7-3.8,3.8-3.8h14.5c2.1,0,3.8,1.7,3.8,3.8L23.1,16.4
			L23.1,16.4z"/>
		<path class="you_logo" d="M16.4,12.1l-6.8-4c-0.1-0.1-0.3-0.1-0.5,0S8.8,8.4,8.8,8.6v8c0,0.2,0.1,0.3,0.2,0.4c0.1,0,0.1,0,0.2,0c0.1,0,0.1,0,0.2,0
			l6.8-4c0.1-0.1,0.2-0.2,0.2-0.4S16.5,12.2,16.4,12.1z M9.8,15.7V9.4l5.3,3.1L9.8,15.7z"/>
	</g>
</g>
</svg>
